<svg width="24" height="24" viewBox="0 0 24 24" fill="none" xmlns="http://www.w3.org/2000/svg">
<path d="M11.9625 2C6.45975 2 1.99377 6.48 1.99377 12C1.99377 17.52 6.45975 22 11.9625 22C17.4652 22 21.9312 17.52 21.9312 12C21.9312 6.48 17.4652 2 11.9625 2ZM7.04791 18.28C7.47656 17.38 10.0884 16.5 11.9625 16.5C13.8366 16.5 16.4584 17.38 16.877 18.28C15.5213 19.36 13.8167 20 11.9625 20C10.1083 20 8.40365 19.36 7.04791 18.28ZM18.3026 16.83C16.877 15.09 13.4179 14.5 11.9625 14.5C10.507 14.5 7.04791 15.09 5.62238 16.83C4.60557 15.49 3.98751 13.82 3.98751 12C3.98751 7.59 7.56628 4 11.9625 4C16.3587 4 19.9374 7.59 19.9374 12C19.9374 13.82 19.3194 15.49 18.3026 16.83ZM11.9625 6C10.0285 6 8.47343 7.56 8.47343 9.5C8.47343 11.44 10.0285 13 11.9625 13C13.8964 13 15.4515 11.44 15.4515 9.5C15.4515 7.56 13.8964 6 11.9625 6ZM11.9625 11C11.1351 11 10.4672 10.33 10.4672 9.5C10.4672 8.67 11.1351 8 11.9625 8C12.7899 8 13.4578 8.67 13.4578 9.5C13.4578 10.33 12.7899 11 11.9625 11Z" fill="black"/>
</svg>
