<svg width="25" height="24" viewBox="0 0 25 24" fill="none" xmlns="http://www.w3.org/2000/svg">
<path d="M16.5506 3C14.8053 3 13.1302 3.81 12.0368 5.09C10.9435 3.81 9.26834 3 7.52299 3C4.43354 3 2.0061 5.42 2.0061 8.5C2.0061 12.28 5.41655 15.36 10.5824 20.04L12.0368 21.35L13.4913 20.03C18.6571 15.36 22.0675 12.28 22.0675 8.5C22.0675 5.42 19.6401 3 16.5506 3ZM12.1371 18.55L12.0368 18.65L11.9365 18.55C7.16189 14.24 4.01225 11.39 4.01225 8.5C4.01225 6.5 5.51685 5 7.52299 5C9.06772 5 10.5723 5.99 11.104 7.36H12.9797C13.5013 5.99 15.0059 5 16.5506 5C18.5568 5 20.0614 6.5 20.0614 8.5C20.0614 11.39 16.9117 14.24 12.1371 18.55Z" fill="black"/>
</svg>
