<svg width="24" height="24" viewBox="0 0 24 24" fill="none" xmlns="http://www.w3.org/2000/svg">
<path d="M19.3492 12.98C19.389 12.66 19.4189 12.34 19.4189 12C19.4189 11.66 19.389 11.34 19.3492 11.02L21.4504 9.37C21.6396 9.22 21.6894 8.95 21.5699 8.73L19.5782 5.27C19.4886 5.11 19.3193 5.02 19.14 5.02C19.0803 5.02 19.0205 5.03 18.9707 5.05L16.4911 6.05C15.9733 5.65 15.4156 5.32 14.8081 5.07L14.4297 2.42C14.3998 2.18 14.1907 2 13.9418 2H9.9584C9.70944 2 9.50031 2.18 9.47044 2.42L9.09202 5.07C8.48456 5.32 7.92689 5.66 7.40905 6.05L4.92941 5.05C4.86966 5.03 4.80991 5.02 4.75016 5.02C4.58087 5.02 4.41158 5.11 4.32195 5.27L2.33027 8.73C2.20081 8.95 2.26056 9.22 2.44977 9.37L4.55099 11.02C4.51116 11.34 4.48129 11.67 4.48129 12C4.48129 12.33 4.51116 12.66 4.55099 12.98L2.44977 14.63C2.26056 14.78 2.21077 15.05 2.33027 15.27L4.32195 18.73C4.41158 18.89 4.58087 18.98 4.76012 18.98C4.81987 18.98 4.87962 18.97 4.92941 18.95L7.40905 17.95C7.92689 18.35 8.48456 18.68 9.09202 18.93L9.47044 21.58C9.50031 21.82 9.70944 22 9.9584 22H13.9418C14.1907 22 14.3998 21.82 14.4297 21.58L14.8081 18.93C15.4156 18.68 15.9733 18.34 16.4911 17.95L18.9707 18.95C19.0305 18.97 19.0902 18.98 19.15 18.98C19.3193 18.98 19.4886 18.89 19.5782 18.73L21.5699 15.27C21.6894 15.05 21.6396 14.78 21.4504 14.63L19.3492 12.98V12.98ZM17.3774 11.27C17.4172 11.58 17.4272 11.79 17.4272 12C17.4272 12.21 17.4073 12.43 17.3774 12.73L17.238 13.86L18.1243 14.56L19.1998 15.4L18.5027 16.61L17.238 16.1L16.2023 15.68L15.3061 16.36C14.8778 16.68 14.4695 16.92 14.0613 17.09L13.0057 17.52L12.8463 18.65L12.6472 20H11.253L11.0638 18.65L10.9044 17.52L9.84886 17.09C9.42064 16.91 9.02231 16.68 8.62397 16.38L7.71776 15.68L6.66217 16.11L5.39746 16.62L4.70037 15.41L5.77588 14.57L6.66217 13.87L6.52275 12.74C6.49288 12.43 6.47296 12.2 6.47296 12C6.47296 11.8 6.49288 11.57 6.52275 11.27L6.66217 10.14L5.77588 9.44L4.70037 8.6L5.39746 7.39L6.66217 7.9L7.69784 8.32L8.5941 7.64C9.02231 7.32 9.4306 7.08 9.8389 6.91L10.8945 6.48L11.0538 5.35L11.253 4H12.6372L12.8264 5.35L12.9857 6.48L14.0413 6.91C14.4695 7.09 14.8679 7.32 15.2662 7.62L16.1724 8.32L17.228 7.89L18.4927 7.38L19.1898 8.59L18.1243 9.44L17.238 10.14L17.3774 11.27ZM11.9501 8C9.74927 8 7.96672 9.79 7.96672 12C7.96672 14.21 9.74927 16 11.9501 16C14.1509 16 15.9334 14.21 15.9334 12C15.9334 9.79 14.1509 8 11.9501 8ZM11.9501 14C10.8547 14 9.9584 13.1 9.9584 12C9.9584 10.9 10.8547 10 11.9501 10C13.0455 10 13.9418 10.9 13.9418 12C13.9418 13.1 13.0455 14 11.9501 14Z" fill="black"/>
</svg>
